<svg width="102" height="102" viewBox="0 0 102 102" fill="none" xmlns="http://www.w3.org/2000/svg">
<path d="M99.8991 93.1668L93.174 99.8934C92.5846 100.487 91.8801 100.957 91.1092 101.277C90.3325 101.597 89.507 101.763 88.6717 101.763C87.8325 101.763 87.0051 101.597 86.2283 101.277C85.4575 100.955 84.7529 100.485 84.1636 99.8934L54.1814 69.9116L43.9883 96.496L43.92 96.6716C43.2662 98.184 42.189 99.4739 40.8111 100.377C39.4333 101.281 37.8213 101.761 36.1761 101.753H35.7605C34.0431 101.681 32.3901 101.084 31.024 100.04C29.6579 98.9958 28.645 97.5595 28.1239 95.9223L0.419269 11.0816C-0.0686263 9.59659 -0.131079 8.00617 0.233866 6.48796C0.594909 4.96974 1.37359 3.58032 2.47624 2.47581C3.58278 1.37129 4.96842 0.594622 6.48675 0.231655C8.00898 -0.131312 9.59951 -0.0669143 11.0827 0.418993L95.9296 28.1216C97.5494 28.6641 98.9702 29.6847 100.005 31.0468C101.035 32.4108 101.628 34.0539 101.708 35.7614C101.788 37.469 101.353 39.1628 100.453 40.6166C99.5596 42.0724 98.2403 43.2218 96.6751 43.9145L96.5014 43.9828L69.9151 54.1967L99.8972 84.1727C101.094 85.365 101.763 86.9827 101.763 88.6688C101.763 90.3548 101.094 91.9726 99.8972 93.1649L99.8991 93.1668Z" fill="#F0EFE8"/>
</svg>
