<svg width="913" height="805" viewBox="0 0 913 805" fill="none" xmlns="http://www.w3.org/2000/svg">
<path d="M761 262.5C809.646 262.5 847.061 274.458 872.431 297.812C898.287 321.605 911.5 356.75 911.5 402.5C911.5 448.25 898.282 483.395 872.431 507.188C847.061 530.542 809.646 542.5 761 542.5C712.354 542.5 674.939 530.542 649.569 507.188C623.713 483.395 610.5 448.25 610.5 402.5C610.5 357.465 623.308 322.707 648.366 298.936L649.569 297.812C674.934 274.458 712.354 262.5 761 262.5Z" stroke="#353E5B" stroke-width="3"/>
<path d="M152 262.5C200.646 262.5 238.061 274.458 263.431 297.812C289.287 321.605 302.5 356.75 302.5 402.5C302.5 448.25 289.282 483.395 263.431 507.188C238.061 530.542 200.646 542.5 152 542.5C103.354 542.5 65.9395 530.542 40.5693 507.188C14.7128 483.395 1.5 448.25 1.5 402.5C1.5 357.465 14.3079 322.707 39.3662 298.936L40.5693 297.812C65.9339 274.458 103.354 262.5 152 262.5Z" stroke="#353E5B" stroke-width="3"/>
<path d="M456.479 1.5C584.562 1.50001 678.214 18.9999 742.979 54.8066C817.738 96.1616 857.228 163.796 857.228 250.565C857.227 308.589 840.704 355.799 808.003 392.016L806.941 393.191L808.174 394.188C854.242 431.433 877.5 483.558 877.5 550.394C877.5 613.703 857.758 661.085 826.584 696.599C795.384 732.143 752.648 755.895 706.531 771.756C614.264 803.489 508.876 803.5 456.479 803.5C404.083 803.5 298.455 803.489 205.947 771.756C159.71 755.895 116.854 732.141 85.5645 696.597C54.3016 661.082 34.5 613.702 34.5 550.394C34.5001 483.62 57.7262 431.495 103.715 394.266L104.944 393.271L103.885 392.096C71.2638 355.927 54.7725 308.669 54.7725 250.549C54.7726 163.783 94.466 96.1175 169.609 54.7451C234.583 18.9685 328.397 1.5 456.479 1.5Z" stroke="#353E5B" stroke-width="3"/>
<path d="M456.341 117.5C546.743 117.5 612.968 129.761 658.918 154.796L660 155.39C713.057 184.748 741.074 232.744 741.074 294.353C741.074 335.568 729.343 369.062 706.158 394.748L705.098 395.924L706.329 396.919C738.996 423.338 755.5 460.31 755.5 507.771C755.5 552.737 741.485 586.359 719.376 611.555C697.24 636.78 666.905 653.653 634.133 664.928C568.555 687.488 493.632 687.5 456.341 687.5C419.049 687.5 343.956 687.489 278.207 664.928C245.349 653.653 214.929 636.778 192.729 611.553C170.557 586.357 156.5 552.735 156.5 507.771C156.5 460.354 172.982 423.382 205.592 396.975L206.821 395.979L205.762 394.805C182.634 369.153 170.926 335.625 170.926 294.341C170.926 232.736 199.087 184.717 252.418 155.346C298.557 129.932 365.227 117.5 456.341 117.5Z" stroke="#353E5B" stroke-width="3"/>
<path d="M575.5 204.5V601.5H383.166V354.341H334.5V204.5H575.5Z" stroke="#353E5B" stroke-width="3"/>
</svg>
