<svg width="116" height="119" viewBox="0 0 116 119" fill="none" xmlns="http://www.w3.org/2000/svg">
<path d="M57.7579 0C46.3364 0 35.1666 3.46694 25.6712 9.96641C16.1716 16.4637 8.77086 25.6997 4.3986 36.5052C0.0263414 47.3107 -1.11975 59.2001 1.11006 70.67C3.33571 82.1399 8.84154 92.6771 16.9184 100.946C24.9952 109.215 35.2851 114.848 46.4903 117.129C57.6955 119.41 69.3043 118.241 79.8606 113.764C90.4127 109.288 99.4359 101.711 105.78 91.985C112.128 82.2613 115.515 70.8276 115.515 59.132C115.496 43.454 109.41 28.4235 98.5788 17.3369C87.7522 6.25029 73.0733 0.014907 57.7579 0ZM74.1529 83.2345C74.3006 83.5816 74.3609 83.9586 74.336 84.3355C74.3048 84.7124 74.1799 85.0766 73.9802 85.3918C73.7806 85.7091 73.504 85.9689 73.1816 86.1478C72.8529 86.3288 72.4931 86.4225 72.1249 86.4225H43.4015C43.0292 86.4225 42.6693 86.3288 42.3448 86.1478C42.0162 85.9668 41.7395 85.707 41.5398 85.3918C41.3401 85.0745 41.2154 84.7124 41.1842 84.3355C41.1572 83.9586 41.2196 83.5795 41.3673 83.2345L48.8762 65.7954C45.4857 63.7936 42.8379 60.7015 41.3402 57.0003C39.8468 53.2991 39.5805 49.1975 40.5935 45.3281C41.6065 41.4586 43.8363 38.0406 46.9418 35.6023C50.0473 33.1639 53.8454 31.8414 57.7601 31.8414C61.6747 31.8414 65.4729 33.1618 68.5784 35.6023C71.6839 38.0406 73.9137 41.4586 74.9267 45.3281C75.9397 49.1975 75.6734 53.2991 74.1799 57.0003C72.6823 60.7015 70.0344 63.7915 66.644 65.7954L74.1529 83.2345Z" fill="#353E5B"/>
</svg>
