<svg width="113" height="116" viewBox="0 0 113 116" fill="none" xmlns="http://www.w3.org/2000/svg">
<path d="M51.4769 66.6448L64.1118 54.2001C68.6818 56.4673 73.71 57.6737 78.8269 57.732C83.9776 57.7465 89.0249 56.3571 93.428 53.7217C106.802 45.747 113.965 27.287 112.599 4.34037C112.531 3.25252 112.067 2.22708 111.281 1.45748C110.5 0.687877 109.459 0.228209 108.358 0.163729C85.061 -1.18619 66.3187 5.87334 58.2135 19.046C52.9446 27.626 52.8095 37.9886 57.73 47.9247L49.6143 55.9161L42.7319 49.1353C46.115 41.7763 45.8722 34.1406 41.9463 27.7654C35.8157 17.7751 21.7658 12.4482 4.35398 13.4549C3.25372 13.5194 2.21682 13.9791 1.43545 14.7487C0.656191 15.5183 0.185285 16.5417 0.124043 17.6254C-0.904408 34.7688 4.50813 48.6091 14.6575 54.6494C18.0533 56.692 21.9559 57.7673 25.9346 57.759C29.5437 57.7237 33.102 56.9312 36.3774 55.4315L43.2387 62.2019L38.7279 66.6448H13.5319C12.3366 66.6448 11.1857 67.1128 10.3431 67.9469C9.49412 68.7789 9.02109 69.9104 9.02109 71.0877C9.02109 72.2649 9.49412 73.3965 10.3431 74.2285C11.1857 75.0605 12.3366 75.5306 13.5319 75.5306H18.9402L26.3865 108.557C26.8194 110.537 27.9345 112.307 29.5352 113.574C31.1402 114.841 33.1401 115.527 35.197 115.514H73.068C75.1207 115.523 77.1185 114.838 78.7192 113.572C80.3242 112.305 81.435 110.535 81.8721 108.557L89.3247 75.5306H94.7246C95.9199 75.5306 97.0708 75.0626 97.9135 74.2285C98.7624 73.3965 99.2355 72.2649 99.2355 71.0877C99.2355 69.9104 98.7624 68.7789 97.9135 67.9469C97.0708 67.1149 95.9199 66.6448 94.7246 66.6448H51.4769Z" fill="#353E5B"/>
</svg>
