<svg width="111" height="108" viewBox="0 0 111 108" fill="none" xmlns="http://www.w3.org/2000/svg">
<path d="M100.846 0H9.16795C6.7386 0 4.40585 0.941603 2.68684 2.61763C0.967842 4.29366 0 6.56811 0 8.93881V98.3248C0 100.695 0.967842 102.968 2.68684 104.646C4.40585 106.324 6.7386 107.264 9.16795 107.264H100.846C103.275 107.264 105.608 106.322 107.327 104.646C109.046 102.97 110.014 100.695 110.014 98.3248V8.93881C110.014 6.56811 109.046 4.29575 107.327 2.61763C105.608 0.93951 103.275 0 100.846 0ZM49.0849 65.7312L30.7488 83.6088C30.3218 84.0252 29.8131 84.3537 29.2594 84.5797C28.7058 84.8036 28.1049 84.9208 27.504 84.9208C26.9031 84.9208 26.3022 84.8057 25.7485 84.5797C25.1927 84.3537 24.6841 84.0252 24.2591 83.6088L15.0954 74.67C14.2327 73.831 13.7477 72.6948 13.7477 71.5084C13.7477 70.322 14.2327 69.1858 15.0954 68.3467C15.9517 67.5077 17.1213 67.0369 18.336 67.0369C19.5506 67.0369 20.7203 67.5077 21.5809 68.3467L27.504 74.1281L42.5952 59.4079C43.4579 58.5689 44.6253 58.0981 45.84 58.0981C47.0547 58.0981 48.2243 58.5689 49.0849 59.4079C49.9411 60.247 50.4283 61.3832 50.4283 62.5696C50.4283 63.756 49.9433 64.8921 49.0849 65.7312ZM49.0849 29.9781L30.7488 47.8557C30.3218 48.2721 29.8131 48.6006 29.2594 48.8266C28.7058 49.0505 28.1049 49.1677 27.504 49.1677C26.9031 49.1677 26.3022 49.0526 25.7485 48.8266C25.1927 48.6006 24.6841 48.2721 24.2591 47.8557L15.0954 38.9169C14.6684 38.5026 14.3293 38.0088 14.0996 37.4668C13.8657 36.9249 13.7477 36.3432 13.7477 35.7553C13.7477 34.5689 14.2327 33.4326 15.0954 32.5936C15.9517 31.7545 17.1213 31.2838 18.336 31.2838C19.5506 31.2838 20.7203 31.7545 21.5809 32.5936L27.504 38.3749L42.5952 23.6548C43.4579 22.8158 44.6253 22.345 45.84 22.345C47.0547 22.345 48.2243 22.8158 49.0849 23.6548C49.9411 24.4939 50.4283 25.63 50.4283 26.8164C50.4283 28.0028 49.9433 29.139 49.0849 29.9781ZM91.6779 75.9778H64.1739C62.9592 75.9778 61.7896 75.507 60.9333 74.6679C60.0706 73.8309 59.5899 72.6927 59.5899 71.5084C59.5899 70.3241 60.0706 69.1858 60.9333 68.3488C61.7896 67.5119 62.9592 67.039 64.1739 67.039H91.6779C92.8926 67.039 94.0622 67.5098 94.9184 68.3488C95.7812 69.1858 96.2619 70.3241 96.2619 71.5084C96.2619 72.6927 95.7812 73.8309 94.9184 74.6679C94.0622 75.5049 92.8926 75.9778 91.6779 75.9778ZM91.6779 40.2226H64.1739C62.9592 40.2226 61.7896 39.7518 60.9333 38.9127C60.0706 38.0758 59.5899 36.9375 59.5899 35.7531C59.5899 34.5688 60.0706 33.4305 60.9333 32.5936C61.7896 31.7566 62.9592 31.2838 64.1739 31.2838H91.6779C92.8926 31.2838 94.0622 31.7545 94.9184 32.5936C95.7812 33.4305 96.2619 34.5688 96.2619 35.7531C96.2619 36.9375 95.7812 38.0758 94.9184 38.9127C94.0622 39.7497 92.8926 40.2226 91.6779 40.2226Z" fill="#353E5B"/>
</svg>
